<svg width="369" height="348" viewBox="0 0 369 348" fill="none" xmlns="http://www.w3.org/2000/svg">
<rect width="369" height="348" rx="60" fill="#EFF0C4"/>
<path d="M152.037 104.438C138.793 104.804 101.683 110.92 80.7488 126.854C62.7999 140.515 57.5647 161.155 53.5937 178.364C51.8568 185.891 53.9751 194.043 57.3652 202.777C65.7062 224.268 97.1132 237.666 131.579 246.915C148.674 251.502 168.107 248.857 188.506 246.425C209.699 243.899 227.202 235.146 243.507 223.176C285.078 192.658 291.216 163.318 296.009 140.596C298.37 129.403 296.034 117.623 292.825 106.375C289.559 94.9316 280.009 86.4428 270.653 79.1149C261.145 71.6677 248.862 68.5055 231.622 66.1893C203.735 62.4427 177.204 68.1709 159.251 74.7043C140.768 81.4303 125.909 94.7843 112.273 106.115C86.3731 127.638 71.1999 161.924 63.9673 190.637C60.8294 203.095 63.3424 215.423 66.2307 226.686C69.3577 238.879 82.705 248.909 98.3839 259.026C115.869 270.307 140.423 274.585 173.661 278.934C221.677 285.216 260.167 280.744 277.369 275.822C291.459 271.79 300.648 263.762 308.12 257.705C315.198 251.969 318.777 242.369 320.783 230.788C323.145 217.16 314.646 199.749 300.257 178.751C281.981 152.082 252.115 129.127 223.255 108.501C197.447 90.0576 168.85 84.9066 144.641 81.1199C122.235 77.615 102.31 80.48 86.415 84.4287C72.2529 87.9468 63.7361 99.3125 57.4206 108.76C45.9269 125.953 48.1869 147.11 52.5635 166.201C54.669 170.983 57.6694 175.647 61.2453 180.093C64.8212 184.538 68.8818 188.624 73.0654 192.832" stroke="#607628" stroke-width="5" stroke-linecap="round"/>
</svg>
